<?xml version="1.0" encoding="UTF-8" standalone="no"?>
<svg
   xmlns:dc="http://purl.org/dc/elements/1.1/"
   xmlns:cc="http://creativecommons.org/ns#"
   xmlns:rdf="http://www.w3.org/1999/02/22-rdf-syntax-ns#"
   xmlns:svg="http://www.w3.org/2000/svg"
   xmlns="http://www.w3.org/2000/svg"
   xmlns:sodipodi="http://sodipodi.sourceforge.net/DTD/sodipodi-0.dtd"
   xmlns:inkscape="http://www.inkscape.org/namespaces/inkscape"
   version="1.1"
   id="Layer_1"
   x="0px"
   y="0px"
   width="400"
   height="400"
   viewBox="0 0 400 400"
   enable-background="new 0 0 512 512"
   xml:space="preserve"
   sodipodi:docname="amazon.svg"
   inkscape:version="1.0.2 (e86c870879, 2021-01-15)"><metadata
   id="metadata14"><rdf:RDF><cc:Work
       rdf:about=""><dc:format>image/svg+xml</dc:format><dc:type
         rdf:resource="http://purl.org/dc/dcmitype/StillImage" /><dc:title></dc:title></cc:Work></rdf:RDF></metadata><defs
   id="defs12" /><sodipodi:namedview
   pagecolor="#ffffff"
   bordercolor="#666666"
   borderopacity="1"
   objecttolerance="10"
   gridtolerance="10"
   guidetolerance="10"
   inkscape:pageopacity="0"
   inkscape:pageshadow="2"
   inkscape:window-width="1920"
   inkscape:window-height="1011"
   id="namedview10"
   showgrid="false"
   fit-margin-top="0"
   fit-margin-left="0"
   fit-margin-right="0"
   fit-margin-bottom="0"
   inkscape:zoom="1.5082297"
   inkscape:cx="200.00029"
   inkscape:cy="176.65657"
   inkscape:window-x="0"
   inkscape:window-y="0"
   inkscape:window-maximized="1"
   inkscape:current-layer="Layer_1" />



<g
   id="g842"
   transform="translate(0,33.8605)"><path
     d="m 236.57829,93.964 c -9.683,0.765 -20.854,1.502 -32.021,3.006 -17.12,2.211 -34.24,5.219 -48.386,11.907 -27.544,11.208 -46.163,35.053 -46.163,70.114 0,44.018 28.298,66.354 64.026,66.354 11.93,0 21.606,-1.466 30.522,-3.71 14.156,-4.481 26.07,-12.67 40.209,-27.596 8.192,11.205 10.413,16.428 24.575,28.338 3.725,1.502 7.448,1.502 10.413,-0.742 8.932,-7.458 24.561,-20.873 32.773,-28.33 3.71,-3.012 2.955,-7.463 0.739,-11.204 -8.198,-10.435 -16.381,-19.401 -16.381,-39.506 V 95.464 c 0,-28.359 2.214,-54.453 -18.614,-73.822 C 261.14729,5.955 234.34029,0 213.50029,0 c -2.99,0 -5.949,0 -8.947,0 -37.965,2.247 -78.169,18.635 -87.122,65.629 -1.462,5.955 3.012,8.198 5.989,8.962 l 41.677,5.224 c 4.471,-0.773 6.691,-4.491 7.432,-8.233 3.74,-16.388 17.136,-24.583 32.024,-26.087 0.754,0 1.504,0 2.998,0 8.905,0 18.586,3.743 23.813,11.168 5.932,8.965 5.21,20.904 5.21,31.339 v 5.961 h 0.004 z m 0,43.278 c 0,17.162 0.723,30.571 -8.195,45.461 -5.208,10.437 -14.141,17.154 -23.827,19.4 -1.481,0 -3.698,0.766 -5.947,0.766 -16.371,0 -26.077,-12.673 -26.077,-31.334 0,-23.856 14.159,-35.056 32.023,-40.277 9.687,-2.241 20.86,-2.982 32.021,-2.982 v 8.966 z"
     id="path3" /><path
     fill="#fe9900"
     d="m 373.71029,314.443 c 18.201,-15.398 25.89,-43.349 26.29,-57.939 v -2.44 c 0,-3.255 -0.803,-5.661 -1.6,-6.88 -3.646,-4.445 -30.369,-8.523 -53.402,-1.627 -6.468,2.045 -12.146,4.865 -17.396,8.507 -4.051,2.854 -3.238,6.464 0.802,6.08 4.447,-0.823 10.126,-1.208 16.594,-2.048 14.159,-1.18 30.742,-1.592 34.784,3.662 5.642,6.87 -6.468,36.868 -11.749,49.838 -1.593,4.065 2.03,5.696 5.677,2.847 z"
     id="path5" /><path
     fill="#fe9900"
     d="m 2.008292,256.504 c 52.17,47.404 120.924998,75.775 197.790998,75.775 47.725,0 102.727,-13.381 145.199,-38.899 5.676,-3.27 11.316,-6.912 16.565,-10.952 7.286,-5.25 0.817,-13.38 -6.463,-10.147 -3.229,1.215 -6.873,2.857 -10.103,4.066 -46.539,18.248 -95.441,26.76 -140.762,26.76 -72.008,0 -141.559998,-19.87 -197.785998,-52.684 -5.259,-2.822 -8.907,2.428 -4.441,6.081 z"
     id="path7" /></g>
</svg>
