<?xml version="1.0" encoding="UTF-8" standalone="no"?>
<svg
   xmlns:dc="http://purl.org/dc/elements/1.1/"
   xmlns:cc="http://creativecommons.org/ns#"
   xmlns:rdf="http://www.w3.org/1999/02/22-rdf-syntax-ns#"
   xmlns:svg="http://www.w3.org/2000/svg"
   xmlns="http://www.w3.org/2000/svg"
   xmlns:sodipodi="http://sodipodi.sourceforge.net/DTD/sodipodi-0.dtd"
   xmlns:inkscape="http://www.inkscape.org/namespaces/inkscape"
   viewBox="409.289 277.787 163.27921 163.27921"
   width="163.27921"
   height="163.27921"
   version="1.1"
   id="svg27"
   sodipodi:docname="youtube.svg"
   inkscape:version="1.0.2 (e86c870879, 2021-01-15)">
  <metadata
     id="metadata33">
    <rdf:RDF>
      <cc:Work
         rdf:about="">
        <dc:format>image/svg+xml</dc:format>
        <dc:type
           rdf:resource="http://purl.org/dc/dcmitype/StillImage" />
        <dc:title></dc:title>
        <dc:title></dc:title>
      </cc:Work>
    </rdf:RDF>
  </metadata>
  <defs
     id="defs31" />
  <sodipodi:namedview
     pagecolor="#ffffff"
     bordercolor="#666666"
     borderopacity="1"
     objecttolerance="10"
     gridtolerance="10"
     guidetolerance="10"
     inkscape:pageopacity="0"
     inkscape:pageshadow="2"
     inkscape:window-width="1920"
     inkscape:window-height="1011"
     id="namedview29"
     showgrid="false"
     inkscape:zoom="1.7899327"
     inkscape:cx="278.21831"
     inkscape:cy="127.84016"
     inkscape:window-x="0"
     inkscape:window-y="0"
     inkscape:window-maximized="1"
     inkscape:current-layer="svg27" />
  <g
     class="style-scope yt-icon"
     id="g6"
     transform="matrix(5.715038,0,0,5.715038,409.289,302.27622)">
    <path
       d="M 27.9727,3.12324 C 27.6435,1.89323 26.6768,0.926623 25.4468,0.597366 23.2197,2.24288e-7 14.285,0 14.285,0 14.285,0 5.35042,2.24288e-7 3.12323,0.597366 1.89323,0.926623 0.926623,1.89323 0.597366,3.12324 2.24288e-7,5.35042 0,10 0,10 c 0,0 2.24288e-7,4.6496 0.597366,6.8768 0.329257,1.23 1.295864,2.1966 2.525864,2.5258 C 5.35042,20 14.285,20 14.285,20 c 0,0 8.9347,0 11.1618,-0.5974 1.23,-0.3292 2.1967,-1.2958 2.5259,-2.5258 C 28.5701,14.6496 28.5701,10 28.5701,10 c 0,0 -0.0024,-4.64958 -0.5974,-6.87676 z"
       class="style-scope yt-icon"
       fill="#ff0000"
       id="path2" />
    <path
       d="m 11.4253,14.2854 7.4224,-4.285 -7.4224,-4.28507 z"
       class="style-scope yt-icon"
       fill="#ffffff"
       id="path4" />
  </g>
</svg>
