<svg width="499" height="125" viewBox="0 0 499 125" fill="none" xmlns="http://www.w3.org/2000/svg">
<path fill-rule="evenodd" clip-rule="evenodd" d="M107.095 0.55851H16.3972C7.43002 0.55851 0.186523 7.80714 0.186523 16.7281V107.472C0.186523 116.434 7.47106 123.677 16.3972 123.677H107.095C116.057 123.677 123.305 116.398 123.305 107.472V16.7692C123.305 7.80713 116.021 0.55851 107.095 0.55851ZM75.0682 23.2127V27.4346C75.0682 27.922 74.6219 28.2554 74.1705 28.1426C70.7693 27.2089 67.2501 26.7267 63.6951 26.7267C60.0262 26.723 56.3752 27.2377 52.8504 28.2554C52.363 28.3683 51.9167 28.0297 51.9167 27.5475V23.2127C51.9178 21.7958 52.4815 20.4373 53.4839 19.4359C54.4862 18.4345 55.8452 17.8721 57.2621 17.8724H69.7228C71.1397 17.8721 72.4987 18.4345 73.5011 19.4359C74.5034 20.4373 75.0671 21.7958 75.0682 23.2127ZM38.7891 30.8307L40.9181 32.9596C41.2156 33.2982 41.1787 33.8214 40.8052 34.0472C39.0883 35.281 37.4755 36.6536 35.9831 38.1511C34.5031 39.6379 33.1396 41.2363 31.9047 42.9322C31.6072 43.2657 31.1199 43.3426 30.7813 43.0092L28.6883 40.9162C28.1908 40.4218 27.7961 39.8339 27.5267 39.1864C27.2573 38.5388 27.1187 37.8444 27.1187 37.1431C27.1187 36.4418 27.2573 35.7473 27.5267 35.0998C27.7961 34.4523 28.1908 33.8644 28.6883 33.37L31.2327 30.8307C31.7288 30.3343 32.3177 29.9405 32.966 29.6719C33.6143 29.4032 34.3092 29.2649 35.0109 29.2649C35.7127 29.2649 36.4075 29.4032 37.0558 29.6719C37.7041 29.9405 38.2931 30.3343 38.7891 30.8307ZM63.6581 64.6268V46.3642C63.6581 45.9538 64.0326 45.6562 64.4071 45.6562C71.625 45.9179 77.8733 49.95 81.2385 55.8546C81.4232 56.224 81.3103 56.6754 80.941 56.8601L64.7047 65.2629C64.2225 65.5246 63.6581 65.1501 63.6581 64.6268ZM39.1216 65.858C39.1216 79.3755 50.1202 90.3587 63.6581 90.3587C77.2382 90.3587 88.1958 79.3755 88.1958 65.858C88.1958 52.3406 77.2012 41.3625 63.6581 41.3625C50.1202 41.3625 39.1216 52.3406 39.1216 65.858ZM28.836 65.858C28.836 46.6309 44.4311 31.0564 63.6581 31.0564C82.9211 31.0564 98.4803 46.5899 98.4803 65.8221C98.4803 85.0543 82.8852 100.629 63.6581 100.629C44.4311 100.629 28.836 85.0902 28.836 65.858Z" fill="#5468FF"/>
<path fill-rule="evenodd" clip-rule="evenodd" d="M245.961 98.2124C221.988 98.3252 221.988 78.8673 221.988 75.7688L221.947 2.87724L236.572 0.558502V73.0037C236.572 74.7633 236.572 85.8902 245.96 85.9261V98.2124H245.961ZM186.679 86.3006C191.167 86.3006 194.497 86.039 196.816 85.5927V70.7312C195.658 70.4233 194.483 70.1852 193.296 70.0181C191.613 69.7685 189.914 69.6433 188.212 69.6436C186.601 69.6436 184.954 69.7565 183.313 70.0181C181.666 70.2438 180.168 70.6901 178.86 71.3262C177.552 71.9624 176.464 72.8601 175.679 74.0143C174.858 75.1737 174.484 75.8457 174.484 77.6002C174.484 81.0321 175.679 83.0174 177.849 84.3204C180.019 85.6286 182.974 86.3006 186.679 86.3006ZM185.407 33.2722C190.229 33.2722 194.306 33.8724 197.599 35.0677C200.889 36.263 203.546 37.9405 205.489 40.0694C207.475 42.2343 208.819 45.1122 209.641 48.1748C210.502 51.2373 210.913 54.5975 210.913 58.291V95.8628C208.671 96.345 205.264 96.9042 200.704 97.5762C196.143 98.2483 191.019 98.5868 185.329 98.5868C181.553 98.5868 178.075 98.2124 174.971 97.5044C171.827 96.7965 169.174 95.6371 166.927 94.0314C164.722 92.4258 163.003 90.3686 161.731 87.8344C160.495 85.29 159.858 81.7093 159.858 77.9747C159.858 74.3888 160.566 72.1111 161.957 69.6436C163.372 67.1812 165.281 65.1652 167.676 63.5954C170.108 62.0256 172.873 60.9073 176.054 60.2353C179.234 59.5633 182.564 59.2247 186.001 59.2247C187.611 59.2247 189.294 59.3375 191.09 59.5222C192.849 59.712 194.758 60.0506 196.779 60.5328V58.1423C196.779 56.4648 196.589 54.8591 196.178 53.3663C195.784 51.8951 195.067 50.5301 194.08 49.37C193.07 48.2107 191.767 47.3129 190.12 46.6819C188.473 46.0458 186.375 45.5585 183.872 45.5585C180.506 45.5585 177.439 45.9689 174.633 46.4562C171.827 46.9384 169.508 47.5027 167.748 48.1337L165.994 36.1501C167.825 35.514 170.554 34.8779 174.074 34.2469C177.588 33.5698 181.368 33.2722 185.406 33.2722H185.407ZM474.233 85.8902C478.722 85.8902 482.046 85.6286 484.365 85.1771V70.3208C483.544 70.0951 482.385 69.8334 480.851 69.6077C479.166 69.3581 477.465 69.233 475.762 69.2332C474.156 69.2332 472.51 69.3461 470.863 69.6077C469.221 69.8334 467.724 70.2797 466.415 70.9159C465.102 71.552 464.02 72.4497 463.235 73.604C462.409 74.7633 462.04 75.4353 462.04 77.1898C462.04 80.6217 463.235 82.607 465.405 83.91C467.611 85.2541 470.53 85.8902 474.233 85.8902ZM472.997 32.9029C477.819 32.9029 481.897 33.498 485.19 34.6932C488.478 35.8885 491.136 37.566 493.08 39.6949C495.024 41.8239 496.409 44.7377 497.23 47.8003C498.092 50.8629 498.502 54.223 498.502 57.9217V95.4883C496.26 95.9706 492.854 96.5297 488.294 97.2069C483.733 97.8789 478.608 98.2124 472.919 98.2124C469.143 98.2124 465.665 97.8379 462.563 97.1299C459.418 96.422 456.766 95.2626 454.519 93.657C452.313 92.0513 450.595 89.9942 449.322 87.46C448.086 84.9206 447.45 81.3348 447.45 77.6002C447.45 74.0144 448.163 71.7366 449.548 69.2691C450.964 66.8068 452.872 64.7907 455.268 63.2209C457.7 61.6563 460.465 60.5328 463.645 59.8608C466.826 59.1888 470.155 58.8553 473.597 58.8553C475.203 58.8553 476.886 58.9682 478.681 59.1529C480.477 59.3375 482.349 59.6761 484.365 60.1635V57.7729C484.365 56.0903 484.18 54.4846 483.77 52.9918C483.377 51.5202 482.66 50.1549 481.672 48.9956C480.661 47.8362 479.358 46.9384 477.712 46.3075C476.064 45.6713 473.967 45.1891 471.463 45.1891C468.098 45.1891 465.03 45.5995 462.224 46.0817C459.418 46.5691 457.099 47.1283 455.34 47.7644L453.585 35.7757C455.417 35.1395 458.146 34.5085 461.665 33.8724C465.179 33.2363 468.955 32.9029 472.997 32.9029ZM429.085 25.9569C433.983 25.9569 437.99 21.9966 437.99 17.1026C437.99 12.2138 434.024 8.25343 429.085 8.25343C424.15 8.25343 420.184 12.2138 420.184 17.1026C420.184 21.9966 424.186 25.9569 429.085 25.9569ZM436.451 98.2124H421.753V35.1754L436.45 32.8618V98.2124H436.451ZM410.683 98.2124C386.71 98.3252 386.71 78.8673 386.71 75.7688L386.669 2.87724L401.295 0.558502V73.0037C401.295 74.7633 401.295 85.8902 410.683 85.9261V98.2124ZM363.143 65.9501C363.143 59.6351 361.758 54.3717 359.066 50.7141C356.373 47.0154 352.597 45.1891 347.77 45.1891C342.948 45.1891 339.166 47.0154 336.478 50.7141C333.784 54.4077 332.472 59.6351 332.472 65.9501C332.472 72.3368 333.821 76.6255 336.515 80.3242C339.208 84.0588 342.984 85.8902 347.811 85.8902C352.633 85.8902 356.414 84.0229 359.107 80.3242C361.799 76.5896 363.143 72.3368 363.143 65.9501ZM378.102 65.9142C378.102 70.844 377.394 74.5735 375.933 78.6467C374.476 82.7148 372.419 86.1877 369.767 89.0656C367.11 91.9384 363.929 94.1802 360.188 95.75C356.45 97.3146 350.688 98.2124 347.81 98.2124C344.927 98.1764 339.207 97.3556 335.503 95.75C331.799 94.1443 328.619 91.9384 325.966 89.0656C323.309 86.1877 321.253 82.7148 319.755 78.6467C318.261 74.5735 317.513 70.844 317.513 65.9142C317.513 60.9843 318.184 56.2391 319.682 52.2069C321.18 48.1748 323.273 44.7377 325.966 41.8649C328.66 38.987 331.876 36.7811 335.539 35.2165C339.243 33.6467 343.321 32.9029 347.733 32.9029C352.15 32.9029 356.223 33.6826 359.963 35.2165C363.708 36.7811 366.925 38.987 369.541 41.8649C372.192 44.7377 374.251 48.1748 375.749 52.2069C377.318 56.2391 378.103 60.9843 378.103 65.9142H378.102ZM268.03 65.9142C268.03 72.0342 269.374 78.8314 272.067 81.6682C274.76 84.5102 278.237 85.9261 282.506 85.9261C284.825 85.9261 287.031 85.5927 289.087 84.9566C291.144 84.3204 292.787 83.5715 294.1 82.6788V46.4203C293.054 46.1946 288.677 45.2968 284.446 45.1891C279.136 45.0352 275.099 47.2052 272.257 50.673C269.45 54.1512 268.03 60.2353 268.03 65.9142ZM308.685 94.7394C308.685 104.712 306.14 111.991 301.014 116.624C295.895 121.251 288.077 123.57 277.529 123.57C273.677 123.57 265.674 122.821 259.277 121.405L261.632 109.827C266.982 110.945 274.051 111.248 277.755 111.248C283.624 111.248 287.815 110.052 290.318 107.662C292.827 105.271 294.058 101.726 294.058 97.0171V94.6265C292.601 95.3345 290.693 96.0475 288.338 96.7965C285.984 97.5044 283.254 97.8789 280.182 97.8789C276.144 97.8789 272.476 97.2428 269.152 95.9706C265.823 94.7035 262.94 92.8362 260.585 90.3686C258.23 87.9063 256.358 84.8078 255.05 81.1091C253.742 77.4104 253.065 70.803 253.065 65.9501C253.065 61.3946 253.778 55.6799 255.164 51.8683C256.584 48.0619 258.601 44.7736 261.334 42.0496C264.028 39.3256 267.321 37.2326 271.173 35.6987C275.026 34.17 279.545 33.2004 284.445 33.2004C289.2 33.2004 293.576 33.7955 297.839 34.5086C302.102 35.2165 305.729 35.9603 308.684 36.7811V94.7394H308.685Z" fill="#5468FF"/>
</svg>
