<?xml version="1.0" encoding="UTF-8" standalone="no"?>
<svg
   xmlns:dc="http://purl.org/dc/elements/1.1/"
   xmlns:cc="http://creativecommons.org/ns#"
   xmlns:rdf="http://www.w3.org/1999/02/22-rdf-syntax-ns#"
   xmlns:svg="http://www.w3.org/2000/svg"
   xmlns="http://www.w3.org/2000/svg"
   xmlns:sodipodi="http://sodipodi.sourceforge.net/DTD/sodipodi-0.dtd"
   xmlns:inkscape="http://www.inkscape.org/namespaces/inkscape"
   width="240.54276mm"
   height="190.97711mm"
   viewBox="0 0 240.54276 190.97711"
   version="1.1"
   id="svg8"
   inkscape:version="1.0.2 (e86c870879, 2021-01-15)"
   sodipodi:docname="responses.svg">
  <defs
     id="defs2" />
  <sodipodi:namedview
     id="base"
     pagecolor="#ffffff"
     bordercolor="#666666"
     borderopacity="1.0"
     inkscape:pageopacity="0.0"
     inkscape:pageshadow="2"
     inkscape:zoom="0.69829717"
     inkscape:cx="422.56097"
     inkscape:cy="391.86459"
     inkscape:document-units="mm"
     inkscape:current-layer="layer1"
     inkscape:document-rotation="0"
     showgrid="false"
     inkscape:window-width="1920"
     inkscape:window-height="1011"
     inkscape:window-x="0"
     inkscape:window-y="0"
     inkscape:window-maximized="1" />
  <metadata
     id="metadata5">
    <rdf:RDF>
      <cc:Work
         rdf:about="">
        <dc:format>image/svg+xml</dc:format>
        <dc:type
           rdf:resource="http://purl.org/dc/dcmitype/StillImage" />
        <dc:title></dc:title>
      </cc:Work>
    </rdf:RDF>
  </metadata>
  <g
     inkscape:label="Layer 1"
     inkscape:groupmode="layer"
     id="layer1"
     transform="translate(5.6285791,-7.225625)">
    <rect
       style="fill:#ffe02a;fill-opacity:1;stroke-width:0.176389;stop-color:#000000"
       id="rect883"
       width="240.54276"
       height="190.97711"
       x="-5.6285791"
       y="7.225625" />
    <path
       fill="currentColor"
       d="m 75.790326,162.47967 h -2.020401 v -46.06511 c 0,-1.33902 -1.085456,-2.42448 -2.424479,-2.42448 H 37.402735 c -1.339019,0 -2.424479,1.08546 -2.424479,2.42448 v 46.06511 h -2.020399 c -0.66946,0 -1.21224,0.54278 -1.21224,1.21224 v 2.0204 h 45.256949 v -2.0204 c 0,-0.66946 -0.542782,-1.21224 -1.21224,-1.21224 z M 44.676173,121.6676 c 0,-0.66946 0.54278,-1.21224 1.21224,-1.21224 h 4.040799 c 0.669459,0 1.212239,0.54278 1.212239,1.21224 v 4.0408 c 0,0.66946 -0.54278,1.21224 -1.212239,1.21224 h -4.040799 c -0.66946,0 -1.21224,-0.54278 -1.21224,-1.21224 z m 0,9.69792 c 0,-0.66946 0.54278,-1.21224 1.21224,-1.21224 h 4.040799 c 0.669459,0 1.212239,0.54278 1.212239,1.21224 v 4.0408 c 0,0.66946 -0.54278,1.21224 -1.212239,1.21224 h -4.040799 c -0.66946,0 -1.21224,-0.54278 -1.21224,-1.21224 z m 5.253039,14.95096 h -4.040799 c -0.66946,0 -1.21224,-0.54278 -1.21224,-1.21224 v -4.0408 c 0,-0.66946 0.54278,-1.21224 1.21224,-1.21224 h 4.040799 c 0.669459,0 1.212239,0.54278 1.212239,1.21224 v 4.0408 c 0,0.66946 -0.54278,1.21224 -1.212239,1.21224 z m 7.677518,16.16319 h -6.465279 v -8.48568 c 0,-0.66946 0.542781,-1.21224 1.21224,-1.21224 h 4.040799 c 0.669459,0 1.21224,0.54278 1.21224,1.21224 z m 6.465278,-17.37543 c 0,0.66946 -0.542781,1.21224 -1.21224,1.21224 h -4.040799 c -0.669459,0 -1.212239,-0.54278 -1.212239,-1.21224 v -4.0408 c 0,-0.66946 0.54278,-1.21224 1.212239,-1.21224 h 4.040799 c 0.669459,0 1.21224,0.54278 1.21224,1.21224 z m 0,-9.69792 c 0,0.66946 -0.542781,1.21224 -1.21224,1.21224 h -4.040799 c -0.669459,0 -1.212239,-0.54278 -1.212239,-1.21224 v -4.0408 c 0,-0.66946 0.54278,-1.21224 1.212239,-1.21224 h 4.040799 c 0.669459,0 1.21224,0.54278 1.21224,1.21224 z m 0,-9.69792 c 0,0.66946 -0.542781,1.21224 -1.21224,1.21224 h -4.040799 c -0.669459,0 -1.212239,-0.54278 -1.212239,-1.21224 v -4.0408 c 0,-0.66946 0.54278,-1.21224 1.212239,-1.21224 h 4.040799 c 0.669459,0 1.21224,0.54278 1.21224,1.21224 z"
       id="path2"
       style="fill:#000000;stroke-width:0.10102" />
    <path
       id="ellipse908"
       style="font-variation-settings:normal;opacity:0.989886;vector-effect:none;fill:#000000;fill-opacity:1;stroke:#ffe02a;stroke-width:6.37228;stroke-linecap:butt;stroke-linejoin:miter;stroke-miterlimit:4;stroke-dasharray:none;stroke-dashoffset:0;stroke-opacity:1;stop-color:#000000;stop-opacity:1"
       d="m 476.08594,117.87695 a 191.15855,117.08188 0 0 0 -190.92578,117.08203 191.15855,117.08188 0 0 0 90.41406,99.50196 l -64.74414,96.20117 91.36328,-87.7832 a 191.15855,117.08188 0 0 0 74.125,9.16211 191.15855,117.08188 0 0 0 191.1582,-117.08204 191.15855,117.08188 0 0 0 -191.1582,-117.08203 191.15855,117.08188 0 0 0 -0.23242,0 z"
       transform="scale(0.26458333)" />
    <path
       id="path889"
       style="font-variation-settings:normal;opacity:0.989886;vector-effect:none;fill:#000000;fill-opacity:1;stroke:#ffe02a;stroke-width:6.37228;stroke-linecap:butt;stroke-linejoin:miter;stroke-miterlimit:4;stroke-dasharray:none;stroke-dashoffset:0;stroke-opacity:1;stop-color:#000000;stop-opacity:1"
       d="m 608.38672,297.10742 a 191.15855,117.08188 0 0 0 -190.92774,117.08203 191.15855,117.08188 0 0 0 6.84375,31.04493 l -129.79492,37.70898 141.74024,-18.13477 a 191.15855,117.08188 0 0 0 172.36914,66.46289 191.15855,117.08188 0 0 0 191.16015,-117.08203 191.15855,117.08188 0 0 0 -191.16015,-117.08203 191.15855,117.08188 0 0 0 -0.23047,0 z"
       transform="scale(0.26458333)" />
    <text
       xml:space="preserve"
       style="font-size:38.1px;line-height:1.25;font-family:sans-serif;letter-spacing:0px;word-spacing:0px;fill:#ffe02a;fill-opacity:1;stroke-width:0.396874"
       x="114.7672"
       y="75.843987"
       id="text912"><tspan
         sodipodi:role="line"
         id="tspan910"
         x="114.7672"
         y="75.843987"
         style="font-style:normal;font-variant:normal;font-weight:normal;font-stretch:normal;font-size:38.1px;font-family:lato;-inkscape-font-specification:lato;fill:#ffe02a;fill-opacity:1;stroke-width:0.396874">1</tspan></text>
    <text
       xml:space="preserve"
       style="font-size:38.1px;line-height:1.25;font-family:sans-serif;letter-spacing:0px;word-spacing:0px;fill:#ffe02a;fill-opacity:1;stroke-width:0.396874"
       x="150.13359"
       y="123.38921"
       id="text916"><tspan
         sodipodi:role="line"
         id="tspan914"
         x="150.13359"
         y="123.38921"
         style="font-style:normal;font-variant:normal;font-weight:normal;font-stretch:normal;font-size:38.1px;font-family:lato;-inkscape-font-specification:lato;fill:#ffe02a;fill-opacity:1;stroke-width:0.396874">2</tspan></text>
  </g>
</svg>
