<svg id="Layer_1" data-name="Layer 1" xmlns="http://www.w3.org/2000/svg" viewBox="0 0 720.32 321.9"><defs><style>.cls-1{fill:#fff;}</style></defs><path class="cls-1" d="M696.51,339.05h-89.7a19.56,19.56,0,0,0-19.56,19.56V566.16a19.56,19.56,0,0,0,39.12,0v-188h70.14c85,0,124.53,38.22,124.53,120.29,0,84.17-39.57,123.37-124.53,123.37H543.6V358.61a19.56,19.56,0,0,0-39.12,0V641.39A19.56,19.56,0,0,0,524,661H696.51c107.06,0,163.65-56.19,163.65-162.49C860.16,394.17,803.57,339.05,696.51,339.05Z" transform="translate(-139.84 -339.05)"/><path class="cls-1" d="M436.73,661H341.84a19.57,19.57,0,0,1-18.57-13.4L248.63,422.31,178.07,647.13a19.56,19.56,0,1,1-37.33-11.71l88.72-282.67a19.55,19.55,0,0,1,18.5-13.7,19.92,19.92,0,0,1,18.72,13.4L356,621.83h61.21V358.61a19.56,19.56,0,0,1,39.12,0V641.39A19.56,19.56,0,0,1,436.73,661Z" transform="translate(-139.84 -339.05)"/></svg>