<svg width="141" height="21" viewBox="0 0 141 21" fill="none" xmlns="http://www.w3.org/2000/svg">
<g clip-path="url(#clip0_166_417)">
<path d="M20.913 3.76653H18.9256V20.6712H15.2584L6.29882 9.15366V16.9047H8.28619V20.6712H0V16.9047H1.98738V3.76653H0V0H6.29154L14.6141 10.7207V3.76653H12.6268V0H20.913V3.76653ZM34.133 13.2775C34.133 13.5795 34.133 13.8833 34.1057 14.212H25.0533C24.8204 17.0673 25.9014 17.9321 27.5776 17.9321C28.9771 17.9321 30.0163 17.0369 30.0163 15.6147H33.9183C33.8345 18.1161 32.4823 21.0018 27.3301 21.0018C22.1778 21.0018 19.7427 17.346 19.7427 13.2507C19.7427 9.595 22.2342 5.69089 27.2464 5.69089C32.2585 5.69089 34.133 8.96248 34.133 13.2775ZM56.6584 9.57713H55.3335L51.9775 20.673H47.5187L45.4076 14.5944L43.5403 20.673H38.9904L35.2232 9.57713H33.8982V5.81954H41.7786V9.57713H39.7912L41.8441 15.486L44.5485 5.81954H46.9727L50.2923 15.4842L52.0576 9.57713H50.0702V5.81954H56.6602V9.57713H56.6584ZM62.1983 9.73079C62.1983 10.2543 62.6187 10.6117 64.102 11.078L66.2295 11.7659C68.1896 12.3985 70.5409 13.8279 70.5409 16.4384C70.5409 19.517 68.1896 21.0018 65.305 21.0018C63.01 21.0018 61.1955 19.9011 60.7187 19.408L60.7133 20.673H56.8604V15.5325H60.6295C60.7424 17.2102 62.2529 18.0893 63.6543 18.0893C64.7736 18.0893 65.3068 17.623 65.3068 17.0459C65.3068 16.358 64.8864 15.9738 62.9827 15.3699L61.1064 14.7641C59.2027 14.1602 57.0461 12.7862 57.0461 10.2847C57.0461 7.23288 59.7906 5.69446 62.1419 5.69446C64.4933 5.69446 65.7418 6.35914 66.3296 7.01846L66.3423 5.86421H70.2024V10.5098H66.2313C66.1749 9.24479 64.9155 8.69089 63.6561 8.69089C62.677 8.69089 62.2002 9.13043 62.2002 9.73437M93.6615 9.5807H92.3348L88.9788 20.6766H84.5199L82.4088 14.598L80.5415 20.6766H75.9917L72.2244 9.5807H70.8995V5.82311H78.7816V9.5807H76.7924L78.8453 15.4896L81.5498 5.82311H83.9739L87.2935 15.4878L89.0589 9.5807H87.0715V5.82311H93.6615V9.5807ZM107.631 13.249C107.631 13.5509 107.631 13.8529 107.604 14.1834H98.5517C98.3187 17.0387 99.3998 17.9035 101.076 17.9035C102.475 17.9035 103.515 17.0083 103.515 15.5861H107.417C107.333 18.0876 105.981 20.9732 100.828 20.9732C95.6762 20.9732 93.2411 17.3175 93.2411 13.2222C93.2411 9.56641 95.7326 5.6623 100.745 5.6623C105.757 5.6623 107.631 8.93389 107.631 13.249ZM122.555 13.2168C122.555 13.5188 122.555 13.8207 122.528 14.1513H113.475C113.242 17.0066 114.323 17.8714 115.999 17.8714C117.399 17.8714 118.438 16.9762 118.438 15.5539H122.34C122.256 18.0554 120.904 20.941 115.752 20.941C110.6 20.941 108.165 17.2853 108.165 13.19C108.165 9.53425 110.656 5.63014 115.668 5.63014C120.68 5.63014 122.555 8.90173 122.555 13.2168ZM138.973 20.648H134.419L129.698 14.5819L128.155 15.7076V16.8815H129.502V20.6462H122.511V16.8958H123.836V3.69684H121.849V0H128.155V11.8696L131.314 9.60214H129.327V5.81954H137.841V9.60214H136.516L133.189 12.0286L136.987 16.8886H138.974V20.6426L138.973 20.648ZM141.002 19.8261C141.002 19.9798 140.962 20.1227 140.885 20.2549C140.807 20.3871 140.7 20.4926 140.567 20.5694C140.43 20.6462 140.285 20.6837 140.13 20.6837C139.975 20.6837 139.83 20.6462 139.695 20.5694C139.56 20.4926 139.453 20.3871 139.375 20.2549C139.298 20.1227 139.256 19.9798 139.256 19.8261C139.256 19.6724 139.297 19.5295 139.375 19.3973C139.453 19.2633 139.559 19.1596 139.695 19.0828C139.83 19.006 139.975 18.9684 140.13 18.9684C140.285 18.9684 140.432 19.006 140.567 19.0828C140.7 19.1596 140.807 19.2633 140.885 19.3973C140.962 19.5295 141.002 19.6724 141.002 19.8261ZM140.627 20.3139C140.765 20.1799 140.833 20.0155 140.833 19.8261C140.833 19.6367 140.763 19.4723 140.627 19.3383C140.49 19.2025 140.325 19.1346 140.13 19.1346C139.935 19.1346 139.77 19.2025 139.631 19.3383C139.495 19.4723 139.426 19.6367 139.426 19.8261C139.426 20.0155 139.495 20.1799 139.631 20.3139C139.77 20.4479 139.935 20.5176 140.13 20.5176C140.325 20.5176 140.49 20.4497 140.627 20.3139ZM140.257 19.8815C140.294 19.894 140.319 19.9101 140.336 19.9244C140.359 19.944 140.383 19.9762 140.41 20.0173C140.41 20.0208 140.463 20.1102 140.561 20.2835H140.287C140.197 20.1084 140.139 20.003 140.108 19.969C140.077 19.9351 140.046 19.919 140.017 19.919C140.01 19.919 140.001 19.919 139.988 19.9226V20.2835H139.768V19.3669H140.172C140.29 19.3669 140.361 19.3901 140.414 19.4366C140.467 19.483 140.492 19.5474 140.492 19.6242C140.492 19.6849 140.472 19.7385 140.432 19.7832C140.392 19.8279 140.343 19.86 140.256 19.8815M140.228 19.7225C140.256 19.701 140.27 19.6742 140.27 19.6403C140.27 19.6063 140.257 19.5795 140.23 19.5581C140.203 19.5366 140.159 19.5259 140.095 19.5259H139.986V19.7528H140.086C140.154 19.7528 140.199 19.7421 140.228 19.7207M113.482 11.7302H118.425C118.425 9.64324 117.042 8.8106 116.007 8.8106C114.815 8.8106 113.564 9.77904 113.481 11.7302M25.0624 11.7945H30.0054C30.0054 9.70756 28.6204 8.87493 27.5867 8.87493C26.3928 8.87493 25.1443 9.84336 25.0606 11.7945M98.5553 11.7624H103.5C103.5 9.6754 102.115 8.84276 101.081 8.84276C99.8893 8.84276 98.639 9.80941 98.5553 11.7624Z" fill="#F72210"/>
</g>
<defs>
<clipPath id="clip0_166_417">
<rect width="141" height="21" fill="white"/>
</clipPath>
</defs>
</svg>
