<?xml version="1.0" encoding="utf-8"?><!DOCTYPE svg PUBLIC "-//W3C//DTD SVG 1.1//EN" "http://www.w3.org/Graphics/SVG/1.1/DTD/svg11.dtd"><svg xmlns="http://www.w3.org/2000/svg" xml:space="preserve" width="1000px" height="193.744px" x="0px" y="0px" version="1.1" viewBox="0 0 1000 193.744"><path d="m990.661 61.073-8.895-8.895c-6.375-6.374-14.973-9.487-25.794-9.487-19.122 0-35.428 9.933-45.212 25.497-.889-4.596-2.815-8.302-5.633-11.118l-8.894-8.894c-3.559-3.558-8.6-5.485-14.379-5.485-5.635 0-11.268 1.631-17.492 5.337l-5.337-5.337h-5.336l-40.617 17.641-.296.148-1.038 6.226c-1.037-1.482-2.371-2.965-3.706-4.299l-8.895-8.895c-7.264-7.264-17.047-10.821-29.351-10.821-10.97 0-20.457 3.41-28.313 9.043l-4.596-4.596h-17.788l2.521-14.23-9.191-9.19h-5.781l-33.944 21.049c1.927-9.783 4.445-20.753 6.374-27.423l1.186-4.151-9.339-9.339-4.299.148c-8.896.297-14.379-.741-20.31-1.778C640.38 1.186 634.153 0 624.073 0c-31.574 0-53.811 18.678-54.699 45.508l-3.112-.296c-1.187-.148-2.372-.148-3.41-.148-9.485 0-17.047 3.261-22.087 9.636-.443-.445-.89-1.038-1.481-1.482-7.115-7.115-16.604-10.525-29.795-10.525-17.938 0-32.464 7.264-40.172 19.567-.891-1.927-2.225-3.706-3.559-5.188l-8.895-8.894c-3.559-3.558-8.599-5.485-14.379-5.485-5.633 0-11.267 1.631-17.492 5.337l-5.336-5.337h-5.337l-29.795 13.045.593-3.706-2.521-2.52c4.744-4.299 7.264-9.932 7.264-16.158 0-5.04-1.63-9.486-4.743-12.451l-8.895-8.895c-3.409-3.409-8.005-5.04-13.638-5.04-6.077 0-11.71 1.927-16.306 5.633l.296-1.334-9.19-9.19h-5.336L300.03 16.454l.889-5.188-9.19-9.19h-5.336l-42.989 19.419-2.964 16.751 7.856 7.856-5.336 29.646c-1.927-5.188-4.744-9.635-8.45-13.341l-8.894-8.895c-7.264-7.264-17.047-10.821-29.351-10.821-11.118 0-20.753 3.558-28.461 9.339 0-.741.148-1.482.148-2.224 0-10.228-3.409-18.678-10.08-25.348l-8.894-8.895C138.749 5.336 121.109.149 96.65.149 41.506.149 0 20.012 0 46.249c0 4.893 1.779 9.487 5.04 12.749l8.894 8.894c3.261 3.262 7.856 5.04 13.341 5.04 5.188 0 10.08-1.63 14.083-4.743l-9.784 55.736c-1.482 8.303-2.668 10.229-12.452 10.971l-2.668.297-3.409 20.158 9.339 9.34 4.002-.297c12.007-.89 21.198-1.334 29.795-1.334 12.007 0 22.828.741 30.981 1.334l3.261.297 3.41-20.16-9.191-9.19-3.409-.296h-.296c0-.148 0-.445.148-.593l5.336-30.24h1.186c5.93 13.341 14.083 25.349 23.569 34.835 1.631 1.631 3.261 3.113 5.04 4.744 1.334 1.482 2.668 2.816 3.854 4.15 28.906 28.906 66.558 43.58 111.918 43.58 46.25 0 53.217-18.528 53.217-29.498 0-4.596-1.779-8.746-5.485-12.305l-1.334-1.334h166.765c-2.816 3.262-4.447 7.412-4.447 12.896 0 4.744 1.779 8.895 5.485 12.451l8.894 8.896c7.264 7.263 21.347 11.117 40.914 11.117 19.418 0 35.725-4.3 46.99-12.304 9.636-6.818 15.269-16.307 16.306-26.83l3.41-.148c4.743-.148 9.189 1.63 14.972 4.15 8.301 3.558 18.529 7.855 34.392 7.855 27.72 0 48.177-12.451 55.439-32.167.296.296.593.741.89 1.037l8.895 8.896c4.447 4.447 10.821 6.817 18.232 6.817 16.307 0 28.018-9.782 35.28-17.047l1.037-1.037 7.264 7.265c7.265 7.263 17.047 10.819 29.352 10.819 13.49 0 24.756-5.188 33.354-13.192l-.297 1.482 9.19 9.189h96.206l3.111-17.194c.297.444.741.89 1.038 1.187l8.895 8.895c6.374 6.374 15.269 9.486 26.831 9.486 20.012 0 34.836-11.117 46.693-21.938l2.225-1.927-11.414-18.529-3.706-3.705 18.528-7.412-.296-2.373c.89-3.558 1.187-6.967 1.187-10.08-.001-9.487-3.114-17.788-9.34-23.866zM92.055 68.93l6.226-34.983h5.188c5.336 0 9.932.593 13.341 1.778.445 1.631.593 3.558.593 5.781-.148 19.567-13.638 25.793-25.348 27.424zm42.988 26.386c3.854-1.631 7.412-3.706 10.525-5.781-.445 2.965-.741 6.078-.741 9.043 0 8.745 1.63 16.306 4.744 22.68-5.93-8.154-10.822-16.9-14.528-25.942zm64.927-15.713c-.296 15.416-4.743 27.869-9.042 33.649.297-15.416 4.743-27.72 9.042-33.649zm19.716 77.675c-11.71 0-23.569-2.668-34.983-7.855 3.113.594 6.226.891 9.784.891 12.155 0 22.68-4.301 30.833-11.119l8.598 8.599h4.892c-.891 5.928-7.858 9.484-19.124 9.484zM338.719 55.885l2.668-14.972c.296.444.741.89 1.038 1.186l8.597 8.598-12.303 5.188zm126.89 58.553 2.668-14.823c1.481 2.372 3.408 4.743 5.633 6.671-3.557 2.52-6.225 5.188-8.301 8.152zm84.495 19.124-5.188-5.188c-2.669-2.668-6.521-4.597-12.008-5.931 5.337-2.074 9.932-4.892 13.638-8.598 1.779-1.777 3.113-3.408 4.447-5.188-.296 8.301-.593 17.196-.889 24.905zm53.068-1.631c-6.226 0-11.117-1.187-15.416-4.002-3.262-5.338-5.484-12.602-6.226-20.457l-.297-2.816-9.19-9.19h-15.269c.297-1.186.443-2.372.74-3.409.741-3.706 1.187-6.227 3.262-8.302 1.481-1.482 5.04-1.778 9.636-.741l3.558.89 2.372-13.341c1.63 2.223 3.409 4.446 5.633 6.521 2.816 2.817 6.522 6.078 10.971 9.339l19.271 14.677c7.411 5.633 9.933 8.746 9.933 14.971-.152 9.188-8.008 15.86-18.978 15.86zm60.926-36.023c-2.075-3.409-4.744-6.67-7.855-9.783l-8.896-8.895c-3.409-3.409-6.967-6.522-10.97-9.635l-18.974-14.527c-1.188-2.075-1.779-4.003-1.779-6.671 0-8.598 6.522-13.489 17.937-13.489 2.521 0 4.893.297 6.968 1.038.444 2.075.594 4.446 0 6.818l-1.187 7.115 9.19 9.19h10.97l-2.224 12.155 9.189 9.191h.445l-2.814 17.493zm55.143 13.489-5.485-5.483-3.261 2.815c-.741.742-1.631 1.334-2.224 1.928l5.188-29.943h8.449c-2.372 6.522-3.559 13.342-3.559 20.012.003 3.705.299 7.263.892 10.671zm45.212 4.004c.297-15.418 4.743-27.868 9.042-33.649-.444 15.415-4.743 27.72-9.042 33.649z"/><path fill="#FFF" d="m865.986 78.272-6.222 34.69c-1.188 6.52-3.26 7.109-6.08 7.109h-3.108c-1.63 0-2.67-.299-3.12-.74-.29-.299-.74-1.33-.14-4.148l5.93-33.951 6.07-4.59c2.52-2.08 4.01-2.82 5.188-2.82.601 0 .892.15 1.04.3.593.44.892 1.78.442 4.15zm15.869-34.54c-9.05 0-16.899 4.59-25.5 10.82l1.78-10.82h-4.301l-40.02 17.49-2.671 15.27h9.189v.3l-6.38 36.17c-1.181 6.52-3.26 7.109-6.069 7.109h-2.381l-3.108 17.791h94.129l3.11-17.791h-3.11c-1.63 0-2.67-.299-3.109-.74-.3-.299-.74-1.33-.15-4.148l7.562-42.4c1.63-10.37-.301-18.82-5.34-23.86-3.41-3.412-8.15-5.191-13.631-5.191zm-455.239 34.54-6.222 34.69c-1.188 6.52-3.26 7.109-6.079 7.109h-3.109c-1.63 0-2.67-.299-3.12-.74-.29-.299-.739-1.33-.14-4.148l5.93-33.951 6.07-4.59c2.52-2.08 4.01-2.82 5.188-2.82.59 0 .892.15 1.041.3.592.44.89 1.78.441 4.15zm-342.72-7.71h-3.7l8.3-46.55c2.07-.14 4-.14 6.07-.14 16.76 0 24.02 5.33 24.02 17.64-.15 25.34-21.79 29.05-34.69 29.05zm376.52 49.509h-3.26c-1.63 0-2.67-.299-3.11-.739-.3-.299-.74-1.33-.149-4.147l7.561-42.401c1.63-10.37-.3-18.82-5.34-23.86-3.41-3.41-8.15-5.19-13.642-5.19-9.038 0-16.89 4.59-25.488 10.82l1.779-10.82h-4.301l-40.029 17.49-2.66 15.27h9.189v.3l-6.38 36.17c-1.18 6.521-3.26 7.109-6.08 7.109h-2.81c-1.631 0-2.67-.3-3.12-.74-.29-.299-.74-1.33-.14-4.147l12.6-71.452h-4.3l-41.95 17.49-2.67 15.27h9.189v.3l-6.369 36.17c-1.19 6.521-3.271 7.109-6.08 7.109h-2.971c-1.63 0-2.66-.3-3.109-.74-.301-.299-.74-1.33-.15-4.147L336.347 2.962h-4.301l-42.1 19.13-2.52 15.12h9.189v.29l-13.34 75.601c-1.19 6.529-3.26 7.119-6.08 7.119h-2.82c-1.63 0-2.66-.301-3.109-.74-.291-.299-.74-1.34-.15-4.149l19.72-112.22h-4.3l-42.25 18.83-2.67 15.27h9.2v.29l-13.351 75.601c-1.18 6.529-3.26 7.119-6.07 7.119h-2.379l-3.11 17.789h5.63c4.3 0 8.6 2.961 8.6 8.74 0 7.42-7.56 11.861-20.31 11.861-23.71 0-47.431-10.67-66.7-29.941-12.16-12.16-22.09-27.129-28.32-42.689 21.2-9.05 33.21-25.35 33.21-45.07 0-9.93-3.26-18.08-9.78-24.6-10.08-10.08-27.43-15.12-51.59-15.12-54.4 0-95.46 19.41-95.46 45.06 0 4.59 1.77 8.89 4.74 11.86 3.11 3.11 7.41 4.74 12.45 4.74 10.08 0 18.68-6.82 20.01-15.56 1.04-4.89 0-9.64-2.81-12.9 3.7-2.07 8.15-3.85 13.63-5.34l-16.75 94.87c-1.63 8.75-3.11 10.972-13.49 11.861l-1.92.149-2.97 18.379 3.12-.289c12-.891 21.34-1.34 29.939-1.34 12.01 0 22.98.738 30.98 1.34l2.22.148 3.12-18.238-2.67-.149c-5.19-.291-8.15-1.33-9.49-2.962-1.18-1.479-1.33-4-.59-7.858l5.48-31.131h8.16c5.93 16.75 15.56 32.319 27.12 44.03 28.76 28.761 66.12 43.279 111.18 43.279 45.36 0 52.181-17.779 52.181-28.459 0-4.301-1.78-8.149-5.19-11.561a27.607 27.607 0 0 0-3.85-3.26h191.52l3.11-17.791zm30.98 41.211c-18.529 0-20.011-3.41-20.011-4.59 0-2.67 2.82-4.451 8.602-7.121 7.26 2.221 15.409 2.961 22.68 3.711l2.07.139c7.56.75 8.6 1.631 8.75 1.932-.301 1.478-6.671 5.929-22.091 5.929zm8.75-80.791c1.93-11.12 6.52-16.9 10.079-16.9 1.181 0 1.931.45 2.671 1.19 1.92 2.37 2.368 7.86 1.18 14.82-1.92 9.93-5.93 16.899-9.78 16.899-1.189 0-2.079-.439-2.819-1.33-2.071-2.227-2.521-7.858-1.331-14.679zm17.34 40.92-3.41-.299c-15.271-1.34-20.602-1.93-20.602-3.861 0-.74.15-1.33 1.48-2.068 2.819.439 5.63.738 8.601.738 13.779 0 25.641-4.148 33.05-11.709 8.159-8.15 9.641-15.42 10.83-21.201.739-3.699 1.329-6.669 3.551-8.739 1.188-1.19 3.119-1.78 5.64-1.78 1.479 0 3.261.15 5.04.59l2.521.59 4.739-27.12-2.67-.15c-1.18-.15-2.22-.15-3.41-.15-9.63 0-17.34 3.56-21.938 10.23-.59-.89-1.33-1.63-2.221-2.52-6.971-6.97-16.16-10.08-29.05-10.08-23.431 0-40.921 12.75-44.331 32.61-2.068 12.009 1.78 22.829 10.682 30.239-9.2 5.631-13.641 13.49-13.641 24.16 0 2.521.439 4.892 1.479 7.119-13.49 4.74-22.24 10.672-22.24 22.682 0 4.3 1.78 8.3 5.19 11.709 6.97 6.972 20.899 10.67 40.028 10.67 19.271 0 35.28-4.149 46.4-12.149 10.37-7.42 16-17.789 16-29.351 0-5.038-1.63-9.198-4.89-12.459-6.068-5.781-16.598-6.67-26.828-7.701zm-161.43-75.309c13.2 0 23.871-9.78 23.871-21.64 0-4.75-1.48-8.9-4.301-11.71-3.109-3.12-7.561-4.75-12.9-4.75-13.189 0-23.859 9.79-23.859 21.65 0 4.74 1.48 8.89 4.3 11.71 3.26 3.11 7.559 4.74 12.889 4.74zm-160.09 19.86c1.04 0 1.78.3 2.37 1.04 1.78 2.08 2.67 5.78 2.67 10.53 0 21.79-8.3 40.609-15.12 40.609-1.039 0-1.779-.289-2.369-1.029-1.78-2.079-2.67-5.78-2.67-10.53 0-21.94 8.299-40.62 15.119-40.62zm-38.84 63.891c6.97 6.969 16.6 10.529 28.46 10.529 31.13 0 50.4-28.461 50.4-54.851 0-13.34-3.7-23.86-11.12-31.13-6.96-6.96-16.6-10.52-28.46-10.52-31.13 0-50.4 28.46-50.4 54.841 0 13.199 3.71 23.72 11.12 31.131zm478.511-61.371-19.271-14.67c-7.12-5.63-10.83-9.64-10.83-16.16 0-9.19 6.97-14.53 18.979-14.53 5.78 0 10.67 1.78 13.78 4.75 3.12 3.11 4.45 8 3.41 13.34l-1.03 6.08h19.86l.3-1.93c2.07-11.41 5.63-28.16 8.301-37.21l.89-3.11-3.261.15h-2.97c-7.409 0-12.3-.89-17.489-1.93-5.931-1.04-12.011-2.22-21.939-2.22-31.57 0-53.66 18.97-53.66 46.1 0 11.86 3.56 20.6 12.01 29.05 2.811 2.819 6.521 5.931 10.82 9.34l19.271 14.681c7.409 5.629 10.369 9.039 10.369 15.859 0 9.93-8.449 17.051-20.01 17.051-8.891 0-15.71-2.67-21.49-8.312-5.49-5.479-9.188-14.819-10.229-25.938l-.15-2.221h-19.42v2.371c.149 13.34-.29 30.238-1.18 42.25l-.15 2.67 2.67-.149h.74c4.74 0 9.189 1.931 14.67 4.299 8.16 3.41 18.24 7.712 33.95 7.712 34.24 0 57.37-19.271 57.37-48.029 0-11.122-4.301-20.461-13.49-29.65-3.412-3.564-6.972-6.674-10.821-9.644zm75.599 39.14c-6.08 5.189-9.19 6.969-12.312 6.969-1.33 0-1.63-.449-1.778-.449-.291-.438-1.03-2.069-.142-7.709l6.521-37.65h18.971l13.05-20.46h-28.319l4.011-23.57h-4.45l-45.36 28.32-2.819 15.71h11.42l-6.97 39.58c-2.521 14.08 1.779 21.64 5.63 25.64 4.301 4.302 10.229 6.531 17.489 6.531 15.87 0 27.28-9.49 34.54-16.75l1.19-1.191-8.301-16.897-2.371 1.926zm243.1-29.65-16.6 6.97c3.108-11.86 8.75-20.16 14.08-20.16.739 0 3.119 0 3.119 6.22.141 1.64.141 4.009-.599 6.97zm26.689-25.05c-6.079-6.08-14.529-9.19-25.061-9.19-30.829 0-54.1 26.09-54.1 60.63 0 11.41 3.26 20.601 9.34 26.681 6.069 6.08 14.819 9.188 25.94 9.188 19.56 0 34.239-10.971 45.948-21.641l1.48-1.34-10.521-17.039-2.08 1.629c-8.891 6.961-18.079 11.121-25.351 11.121-3.7 0-8.149-1.041-10.08-5.189l51.89-20.61.291-1.18c.75-3.41 1.189-6.67 1.189-9.79.156-9.34-2.954-17.34-8.885-23.27zm-221.619 65.22c-1.03 0-1.78-.289-2.37-1.029-1.78-2.079-2.67-5.78-2.67-10.53 0-21.789 8.3-40.62 15.12-40.62 1.039 0 1.778.3 2.38 1.04 1.771 2.08 2.659 5.78 2.659 10.53 0 21.939-8.297 40.609-15.119 40.609zm38.99-63.89c-6.972-6.96-16.602-10.52-28.461-10.52-31.13 0-50.399 28.46-50.399 54.85 0 13.34 3.7 23.86 11.12 31.131 6.96 6.959 16.6 10.521 28.46 10.521 31.13 0 50.398-28.459 50.398-54.851.002-13.191-3.858-23.711-11.118-31.131z"/><path d="M203.533 77.528c0 22.229-8.45 42.991-17.49 42.991-1.93 0-3.27-.75-4.3-1.932-2.08-2.52-3.26-6.52-3.26-12.158 0-22.229 8.45-42.991 17.49-42.991 1.93 0 3.26.75 4.3 1.93 2.069 2.52 3.26 6.52 3.26 12.16zm-44.771 50.549c6.521 6.521 15.71 9.781 26.83 9.781 28.61 0 48.03-25.5 48.03-52.48 0-12.89-3.71-22.68-10.38-29.5-6.521-6.52-15.71-9.78-26.83-9.78-28.61 0-48.03 25.5-48.03 52.479 0 12.891 3.56 22.83 10.38 29.5zm646.31 7.41.02-.149h-.02v.149zm2.369-12.9-2.351 12.75h43.562l2.369-12.898h-.439c-5.039 0-6.52-2.069-5.629-7.711l6.219-34.83 6.82-5.19c2.82-2.07 4.74-3.26 6.82-3.26 1.18 0 2.069.3 2.67.89 1.028 1.18 1.479 3.26.891 6.371l-5.932 35.129c-1.189 6.531-3.41 9.052-8.449 9.052h-.449l-2.371 12.891h43.58l2.371-12.891h-.441c-5.039 0-6.67-2.08-5.629-7.709l7.56-42.402c1.631-9.63-.148-17.34-4.601-21.79-2.959-2.96-6.969-4.44-12.01-4.44-9.479 0-17.49 5.33-27.721 13.04l-1.18.89 2.37-14.08h-1.041l-38.389 16.75-1.932 11.12h5.932c2.219 0 3.109.74 2.67 3.11l-6.371 36.17c-1.188 6.521-3.41 9.039-8.448 9.039l-.451-.001zm-441.738 12.9v.291h43.88l2.37-12.891h-.45c-5.04 0-6.52-2.08-5.63-7.709l6.229-34.842 6.82-5.179c2.812-2.08 4.74-3.27 6.812-3.27 1.188 0 2.08.3 2.67.89 1.039 1.19 1.479 3.26.89 6.38l-6.22 34.68c-1.19 6.531-3.41 9.052-8.45 9.052h-.45l-2.37 12.891h43.58l2.37-12.891h-.438c-5.041 0-6.669-2.08-5.641-7.709l7.57-42.402c1.631-9.63-.15-17.34-4.599-21.79-2.972-2.96-6.972-4.44-12.012-4.44-9.479 0-17.488 5.33-27.72 13.04l-1.18.89 2.369-14.08h-1.039l-38.392 16.75-1.93 11.12h5.93c2.221 0 3.109.74 2.67 3.11l-6.38 36.17c-1.181 6.521-3.41 9.039-8.45 9.039h-.439l-2.37 12.9zm150.75-55.439c-2.07 11.41-6.672 18.971-12.301 18.82-6.08 0-8.449-7.701-6.521-18.82 1.931-11.271 6.969-18.83 12.601-18.83 6.081 0 8.299 7.26 6.221 18.83zm-.441 75.599c0 3.109-8.448 8.15-24.608 8.15-15.859 0-22.381-2.52-22.381-6.971 0-4.439 4.301-6.67 10.819-9.629 7.861 2.52 17.49 3.26 25.201 4 8.299.741 10.969 1.931 10.969 4.45zm46.099-84.939 3.852-21.94c-12-1.04-20.75 3.41-25.051 12.3-.891-1.92-2.221-3.55-4-5.33-6.23-6.23-14.529-9.49-27.42-9.49-21.939 0-38.689 12.01-41.949 30.68-2.23 13.2 3.109 23.72 12.738 30.101-10.369 5.181-15.56 12.3-15.56 23.859 0 3.41 1.039 6.08 2.521 8.449-15.71 5.191-23.27 10.67-23.27 21.352 0 3.851 1.629 7.109 4.439 10.08 6.38 6.369 19.57 10.08 38.399 10.08 39.869 0 59.88-18.092 59.88-39.141 0-4.891-1.771-8.301-4.289-10.82-5.041-5.039-14.381-6.08-25.062-6.971-21.188-1.92-26.229-2.068-26.229-6.52 0-2.22 1.03-3.41 3.41-4.59 2.811.291 5.92.739 9.041.739 13.641 0 24.608-4.149 31.42-10.971 13.049-13.189 7.709-23.57 14.229-30.089 2.083-2.228 6.083-3.258 12.901-1.778zm-217.158-31.13c2.521 2.52 6.22 4.15 11.11 4 11.709 0 21.35-8.6 21.35-19.27 0-4.15-1.34-7.56-3.71-10.08s-6.07-4-11.12-4c-11.71 0-21.34 8.6-21.34 19.27 0 4.15 1.189 7.56 3.71 10.08zm-7.271 37.65-6.08 36.32c-1.18 6.52-3.41 9.039-8.449 9.039h-.44l-2.37 12.9h43.58l2.37-12.9h-.44c-5.039 0-6.529-2.068-5.64-7.709l12.16-68.63h-1.04l-40.32 16.75-1.93 11.12h5.93c2.23 0 3.119.74 2.669 3.11zm-38.84-39.28-13.04 75.449c-1.19 6.521-3.409 9.041-8.45 9.041h-.449l-2.371 12.898h43.58l2.381-12.898h-.45c-5.04 0-6.67-2.069-5.63-7.711l19.27-109.39h-1.039l-40.471 18.38-1.92 11.11h5.93c2.22.001 3.109.751 2.659 3.121zm-214.94 34.98c-1.93 0-4.3 0-6.52-.15l9.04-51.14c2.67-.15 5.34-.15 8.15-.15 18.83 0 26.39 6.97 26.39 20.02-.149 16.45-9.339 31.42-37.06 31.42zm172.551 62.559h15.86l2.369-12.899h-.439c-5.04 0-6.53-2.067-5.641-7.709l19.271-109.4h-1.03l-40.47 18.39-1.931 11.11h5.931c2.37 0 3.11.74 2.67 3.12l-13.34 75.601c-1.19 6.52-3.41 9.039-8.45 9.039h-.45l-2.37 12.9h2.67c5.34 0 10.971 3.85 10.971 11.108 0 7.121-5.931 14.229-22.681 14.229-26.54 0-50.25-12.6-68.49-30.68-13.04-13.051-23.57-29.35-29.64-45.66 22.23-8.74 33.94-24.6 33.94-43.73 0-9.19-3.11-16.9-9.04-22.97-9.49-9.49-26.24-14.53-49.95-14.53-52.78 0-93.1 18.53-93.1 42.54 0 4.01 1.49 7.71 4.01 10.23s6.22 4 10.82 4c8.15 0 16.45-5.33 17.78-13.63 1.19-5.34-.59-10.23-4.439-12.75 5.189-3.41 12.149-6.23 20.6-8.3l-17.34 98.72c-1.78 9.641-4 12.9-15.57 13.939l-2.37 13.49c10.08-.75 20.01-1.34 30.09-1.34 10.97 0 21.2.59 31.28 1.34l2.37-13.49c-10.97-.75-14.08-4.01-12.3-13.639l5.78-33.211h12.01c5.78 17.199 15.42 32.91 27.13 44.77 26.38 26.391 62.7 42.541 109.39 42.541 36.03 0 49.66-11.561 49.66-26.09 0-3.851-1.779-7.111-4.439-9.781-3.12-3.109-7.271-5.34-11.42-7.109-.002-.149.298-.149.298-.149zm296.619 5.93c13.039-.6 23.119 11.861 49.51 11.861 32.609 0 55-18.24 55-45.66 0-10.82-4.301-19.57-12.75-28.021-3.119-2.96-6.67-6.08-10.68-9.19l-19.271-14.67c-7.711-5.93-11.711-10.53-11.711-18.09 0-10.52 8.01-16.9 21.351-16.9 6.819 0 12.149 2.08 15.409 5.34 3.562 3.7 5.191 9.19 4.011 15.42l-.601 3.26h14.98c1.92-10.97 5.631-27.72 8.301-37.36-18.24.59-22.682-4-42.551-4-30.091 0-51.291 17.49-51.291 43.73 0 11.86 3.711 19.71 11.422 27.42 2.959 2.82 6.67 5.93 10.67 9.04l19.27 14.681c7.562 5.779 11.42 9.93 11.42 17.789 0 10.971-9.051 19.42-22.391 19.42-9.629 0-16.9-2.82-23.119-9.039-5.781-5.791-9.791-15.721-10.971-27.43h-14.83c.152 12.45-.139 29.501-1.178 42.399zm145.86-24.459c-4 0-5.778-2.52-4.299-11.121l6.969-39.729h19.722l10.08-15.56h-26.83l4-23.42h-1.041l-43.879 27.42-2.07 11.71h11.41l-7.562 42.4c-1.93 10.971.302 18.819 5.041 23.569 3.859 3.851 9.34 5.779 15.859 5.779 14.09 0 24.461-7.709 32.76-16.01l-6.219-12.6c-6.67 5.632-10.08 7.562-13.941 7.562zm235.55-28.02c2.819-14.82 9.778-26.53 17.489-26.68 3.56 0 5.629 2.82 5.629 8.74 0 2.38-.139 5.34-1.18 8.75l-21.938 9.19zm47.141 28.02-8.301-13.201c-9.041 7.121-18.98 11.57-26.83 11.57-7.119 0-11.711-3.26-13.051-9.039l52.771-21.051c.75-3.27 1.189-6.23 1.189-9.2 0-8.74-3.109-16.15-8.302-21.34-5.489-5.49-13.188-8.45-23.27-8.45-29.359 0-51.59 24.9-51.59 58.259 0 10.972 3.108 19.41 8.75 25.052 5.631 5.631 13.631 8.448 24.311 8.448 18.823.001 33.202-10.818 44.323-21.048zm-204.57-39.43c0 22.229-8.59 42.991-17.49 42.991-1.93 0-3.26-.75-4.301-1.932-2.069-2.52-3.26-6.52-3.26-12.158 0-22.229 8.451-42.991 17.49-42.991 1.93 0 3.26.75 4.301 1.93 2.08 2.52 3.26 6.52 3.26 12.16zm-44.76 50.549c6.52 6.521 15.559 9.781 26.83 9.781 28.609 0 48.02-25.5 48.02-52.48 0-12.89-3.551-22.68-10.37-29.5-6.521-6.52-15.709-9.78-26.83-9.78-28.609 0-48.029 25.5-48.029 52.479-.002 12.891 3.709 22.83 10.379 29.5z"/><path fill="#E60019" d="M195.975 61.366c2.37 0 4.45.89 5.93 2.67 2.52 3.11 3.85 7.56 3.85 13.641 0 21.34-8 45.209-19.71 45.209-2.38 0-4.45-.89-5.93-2.67-2.521-3.109-3.86-7.56-3.86-13.64 0-21.339 8.01-45.21 19.72-45.21zm-10.38 74.27c28.31 0 45.81-25.949 45.81-50.26 0-12-3.26-21.34-9.79-27.86-6.07-6.08-14.521-9.2-25.2-9.2-28.31 0-45.8 26.09-45.8 50.26 0 12 3.26 21.34 9.779 27.87 6.081 6.071 14.531 9.19 25.201 9.19zm668.099-2.38 39.141.149 1.479-8.6c-1.479-.289-3.109-.891-4.301-2.221-1.93-2.37-1.63-5.63-1.188-8l7.56-42.4c1.49-8.89 0-15.86-4-19.86-2.521-2.52-5.93-3.86-10.38-3.86-9.04 0-16.891 5.49-26.38 12.6l-5.78 4.75 2.66-16.31-34.53 15.12-1.34 7.41h3.261c1.341 0 2.97.15 4.149 1.48 1.04 1.34.89 2.97.75 4.161l-6.38 36.159c-.892 5.04-2.67 10.08-9.19 10.83l-1.479 8.59h38.979l1.49-8.59c-1.49-.3-3.12-.891-4.3-2.229-1.931-2.371-1.631-5.631-1.19-8l6.38-35.73 7.41-5.78c2.96-2.22 5.33-3.7 8.15-3.7 1.778 0 3.26.59 4.3 1.63 1.78 1.78 2.37 4.59 1.63 8.3l-6.229 34.68c-.891 5.04-2.659 10.08-9.189 10.83l-1.483 8.591zm-439.369 0 39.13.149 1.489-8.6c-1.489-.289-3.119-.891-4.3-2.221-1.931-2.37-1.631-5.63-1.189-8l7.56-42.4c1.48-8.89 0-15.86-4-19.86-2.52-2.52-5.93-3.86-10.38-3.86-9.04 0-16.898 5.49-26.38 12.6l-5.779 4.75 2.659-16.31-34.54 15.12-1.33 7.41h3.26c1.34 0 2.971.15 4.15 1.48 1.04 1.34.891 2.97.74 4.161l-6.37 36.159c-.89 5.04-2.67 10.08-9.19 10.83l-1.479 8.59h38.979l1.479-8.59c-1.479-.3-3.109-.891-4.29-2.229-1.931-2.371-1.63-5.631-1.189-8l6.37-35.73 7.421-5.78c2.959-2.22 5.329-3.7 8.148-3.7 1.78 0 3.26.59 4.3 1.63 1.78 1.78 2.37 4.59 1.631 8.3l-6.229 34.68c-.891 5.04-2.67 10.08-9.19 10.83l-1.481 8.591zm537.65-73.079c2.37 0 7.86 1.04 7.86 10.97 0 2.08-.15 5.34-1.189 9.34l-.291 1.04-26.84 11.27.75-4.16c2.81-14.231 9.929-28.46 19.71-28.46zm-14.67 75.459c17.342 0 30.682-9.49 41.5-18.979l-5.779-9.49c-9.189 6.67-18.681 10.529-26.24 10.529-8.149 0-13.629-4-15.271-10.819l-.438-1.931 53.51-21.349c.6-2.66.89-5.181.89-7.561 0-8-2.67-14.82-7.71-19.86-5.33-5.34-12.448-7.86-21.79-7.86-28.158 0-49.359 24.17-49.359 56.041 0 10.08 2.819 18.229 8.011 23.42 5.176 5.189 12.735 7.859 22.676 7.859zm-167.81-74.27c2.369 0 4.449.89 5.93 2.67 2.521 3.11 3.859 7.56 3.859 13.641 0 21.34-8.01 45.209-19.719 45.209-2.371 0-4.451-.89-5.932-2.67-2.521-3.109-3.851-7.561-3.851-13.64.002-21.339 8.002-45.21 19.713-45.21zm-10.37 74.27c28.159 0 45.649-25.949 45.8-50.26 0-12-3.26-21.34-9.778-27.86-6.08-6.08-14.531-9.2-25.201-9.2-28.311 0-45.811 26.09-45.811 50.26 0 12 3.262 21.34 9.79 27.87 6.07 6.071 14.519 9.19 25.2 9.19zm-72.94 0c13.351 0 22.98-7.27 30.101-14.229l-4.149-8.602c-5.79 4.59-9.34 6.221-13.2 6.221-2.368 0-4.149-.739-5.33-2.221-1.778-2.08-2.079-5.629-1.038-11.41l7.26-41.508h20.31l7.12-11.12h-25.35l3.698-21.94-40.02 24.91-1.48 8.15h11.41l-8 45.059c-1.63 9.641-.149 16.9 4.44 21.5 3.407 3.41 8.157 5.19 14.228 5.19zm-83.6 15.41c31.57 0 52.771-17.34 52.92-43.58 0-9.93-3.71-18.08-12.01-26.39-3.26-3.261-6.67-6.22-10.37-9.04l-19.271-14.67c-8.01-6.23-12.6-11.42-12.6-19.87 0-11.71 9.04-19.12 23.562-19.12 7.118 0 13.198 2.22 17.049 6.08 4.149 4.15 5.931 10.52 4.601 17.34l-.148.6h10.52c1.93-10.23 4.9-23.87 7.271-32.91h-.149c-7.71 0-12.9-.89-18.38-1.93-5.78-1.04-11.711-2.08-21.2-2.08-29.351 0-49.07 16.61-49.07 41.51 0 10.67 3.12 18.23 10.682 25.79 2.67 2.67 6.22 5.64 10.369 8.901l19.271 14.67c7.271 5.489 12.311 10.08 12.311 19.419 0 12.449-10.381 21.641-24.609 21.641-10.23 0-18.08-2.961-24.75-9.631-5.93-5.779-9.94-15.42-11.42-26.68h-10.67c.148 12.299-.301 26.68-1.041 37.939 5.041.449 9.641 2.38 14.971 4.6 8.151 3.561 17.481 7.411 32.161 7.411zm-92.35-92.05c2.52 0 4.739 1.04 6.368 2.81 2.972 3.56 3.712 10.08 2.08 18.68-2.52 13.05-7.858 20.76-14.38 20.76-2.521 0-4.738-1.04-6.38-2.97-2.96-3.562-3.85-10.081-2.37-18.53 2.082-12.6 7.862-20.75 14.682-20.75zm-31.28 86.12.739-.29.739.29c6.972 2.23 15.271 2.97 22.681 3.71l2.08.149c7.109.739 13.041 1.631 13.041 6.67 0 5.189-9.932 10.371-26.83 10.371-11.41 0-24.61-1.031-24.61-9.19 0-6.37 6.53-9.19 12.16-11.71zm7.71 33.36c34.979 0 57.66-14.529 57.81-37.209 0-3.711-1.18-6.82-3.56-9.189-4.59-4.45-14.381-5.34-23.71-6.229l-3.41-.291c-19.569-1.779-24.91-2.229-24.91-8.449 0-3.86 2.37-5.49 4.75-6.67l.591-.301.739.149c2.96.438 5.932.739 8.75.739 12.602 0 23.12-3.711 29.79-10.381 7.26-7.108 8.45-13.339 9.49-18.818.74-4.011 1.479-7.86 4.74-11.12 1.479-1.48 4.148-3.11 8.898-3.11 1.182 0 2.521.14 3.852.29l2.97-17.19h-.602c-9.479 0-16.3 4-19.858 11.26l-1.93 4.15-2.07-4c-.74-1.63-1.93-3.26-3.562-4.89-6.08-6.08-14.08-8.75-25.789-8.75-21.2 0-36.771 11.27-39.881 28.76-2.08 11.41 2.222 21.64 11.711 27.872l3.261 2.068-3.41 1.779c-10.08 5.041-14.381 11.57-14.381 21.939 0 2.82.601 5.041 2.08 7.271l1.631 2.369-2.82.891c-15.859 5.189-21.79 10.37-21.79 19.271 0 3.108 1.34 5.93 3.86 8.449 6.071 6.07 19.119 9.34 36.76 9.34zm-130.6-136.97c10.68 0 19.27-7.71 19.129-17.05 0-3.56-1.039-6.52-2.969-8.45-2.221-2.22-5.48-3.41-9.641-3.41-10.52 0-19.12 7.71-19.12 17.05 0 3.56 1.04 6.52 2.97 8.45 2.221 2.22 5.481 3.41 9.631 3.41zm-33.35 91.75 39.13.149 1.49-8.6c-1.49-.289-3.12-.891-4.301-2.221-1.93-2.37-1.629-5.63-1.189-8l11.561-65.08-36.461 15.12-1.34 7.41h3.271c1.33 0 2.96.15 4.149 1.48 1.03 1.34.891 2.97.74 4.161l-6.38 36.159c-.89 5.04-2.67 10.08-9.19 10.83l-1.48 8.592zm-45.66 0h39.14l1.48-8.59c-1.48-.3-3.109-.89-4.3-2.229-1.931-2.371-1.63-5.631-1.181-8l18.67-105.839-36.609 16.6-1.34 7.41h3.27c1.33 0 2.961.15 4.15 1.48 1.029 1.34.891 2.97.74 4.16l-13.34 75.59c-.891 5.04-2.67 10.08-9.19 10.83l-1.49 8.588zM94.435 19.266c19.271 0 28.61 7.26 28.46 22.09 0 21.34-14.38 33.65-39.29 33.65-1.92 0-4.29 0-6.67-.15l-2.37-.15 9.79-55.14 1.78-.15c2.81-.15 5.63-.15 8.3-.15zm128.22 157.13c30.54 0 47.44-8.449 47.581-23.719 0-2.961-1.33-5.781-3.851-8.301-2.52-2.37-6.08-4.59-10.82-6.67-1.34-.74-1.48-1.93-1.34-2.67.3-.891 1.04-1.78 2.38-1.78h13.93l1.479-8.59c-1.479-.3-3.109-.89-4.3-2.229-1.92-2.371-1.63-5.631-1.18-8l18.68-105.839-36.62 16.6-1.33 7.41h3.11c1.33 0 2.97.15 4.15 1.48 1.04 1.34.89 2.97.74 4.15l-13.34 75.6c-.89 5.04-2.67 10.08-9.19 10.83l-1.48 8.59c6.37 0 13.19 4.602 13.19 13.352 0 12.148-12.9 16.449-24.9 16.449-24.91 0-49.81-11.119-69.97-31.279-13.19-13.04-23.87-29.5-30.24-46.4l-.74-2.07 2.07-.74c20.91-8.159 32.47-22.979 32.47-41.659 0-8.59-2.82-15.71-8.45-21.34-9.189-9.19-25.35-13.79-48.33-13.79-50.99 0-90.87 17.64-90.87 40.32 0 3.26 1.19 6.38 3.41 8.6 2.23 2.22 5.34 3.41 9.19 3.41 6.68 0 14.38-4.3 15.57-11.86 1.04-4.45-.3-8.3-3.41-10.38l-2.82-1.78 2.82-1.92c5.34-3.56 12.3-6.38 21.35-8.6l3.26-.89-17.94 101.99c-1.78 9.78-4.45 14.229-15.86 15.561l-1.479 9.041c10.819-.892 19.42-1.182 27.42-1.182 11.27 0 21.35.592 29.35 1.182l1.63-9.19c-5.33-.59-8.45-1.92-10.37-4.44-1.93-2.67-2.52-6.229-1.49-11.57l6.08-34.979h15.42l.439 1.479c5.64 16.75 15.12 32.32 26.68 43.881 27.871 27.861 64.191 41.942 107.921 41.942z"/></svg>
