<svg xmlns="http://www.w3.org/2000/svg" fill="none" viewBox="0 0 248 50"><g fill="#000" clip-path="url(#HaiLogo_svg__a)"><path d="M108.615 0h-1.426v50h1.426z"/><path fill-rule="evenodd" d="m71.293 0-21.02 50H51.7L72.72 0z" clip-rule="evenodd"/><path d="M36.895 0h-1.45v50h1.45zM6.393 0H4.967v50h1.426z"/><path fill-rule="evenodd" d="M74.086 6.492 92.36 50h1.426L74.799 4.787z" clip-rule="evenodd"/><path d="M31.215 24.335H10.623v1.377h20.592z"/><path fill-rule="evenodd" d="m62.726 33.98-.654 1.4h19.939l-.654-1.4z" clip-rule="evenodd"/><path fill-rule="evenodd" d="M112.145 50h1.426V0h-1.426zm-9.922 0h1.426V0h-1.426zM76.248 0 55.241 50h1.45l4.087-9.738h22.529L87.406 50h1.426l-16.03-38.288 4.242-10.089L97.328 50h1.425L77.757 0zm-4.17 13.475 6.618 15.717H65.531l6.559-15.717zm-7.2 17.118h14.4l3.446 8.314H61.36zM66.326 0 45.319 50h1.426L67.753 0zM40.412 50h1.45V0h-1.45zM30.49 0v19.407H11.36V0H9.933v50h1.425V30.593h19.13V50h1.45V0zM11.36 20.866h19.13v8.314H11.36zM0 50h1.426V0H0z" clip-rule="evenodd"/><path d="M134.306 28.853v-3.981h-4.658v3.981h-1.259v-8.967h1.259v3.83h4.658v-3.83h1.26v8.967zM140.008 29.052c-1.437 0-2.317-1.063-2.317-2.44v-3.83h1.212v3.654c0 .83.381 1.565 1.403 1.565 1.021 0 1.461-.63 1.461-1.553V22.78h1.212v4.951c0 .48.036.911.059 1.121h-1.152a6 6 0 0 1-.048-.735c-.332.63-1.105.922-1.83.922zM145.047 28.853V22.77h1.153v.806c.38-.666 1.152-.981 1.877-.981.772 0 1.521.362 1.854 1.156.487-.876 1.283-1.156 2.067-1.156 1.081 0 2.139.724 2.139 2.312v3.946h-1.2v-3.818c0-.794-.404-1.39-1.307-1.39-.844 0-1.426.654-1.426 1.53v3.678h-1.212v-3.818c0-.782-.392-1.39-1.319-1.39-.867 0-1.438.631-1.438 1.542v3.666h-1.2zM157.571 25.385l1.675-.245c.369-.047.475-.245.475-.455 0-.596-.404-1.086-1.342-1.086-.844 0-1.331.514-1.402 1.226l-1.153-.269c.131-1.167 1.2-1.973 2.531-1.973 1.854 0 2.578 1.04 2.578 2.23v3.048c0 .525.048.852.072 1.004h-1.188c-.024-.152-.06-.374-.06-.817-.273.432-.891 1.016-1.996 1.016-1.26 0-2.068-.865-2.068-1.822 0-1.086.808-1.693 1.878-1.845zm2.139.864v-.28l-1.89.28c-.511.07-.903.362-.903.911 0 .456.38.888.998.888.987 0 1.783-.467 1.783-1.799zM164.011 28.853h-1.212V22.77h1.188v.875c.452-.758 1.188-1.05 1.901-1.05 1.486 0 2.21 1.05 2.21 2.405v3.853h-1.212v-3.655c0-.852-.356-1.53-1.437-1.53-.951 0-1.438.748-1.438 1.67zM169.584 25.747v-1.039h3.481v1.04zM174.23 24.37c0-3.001 2.27-4.671 4.528-4.671 2.079 0 3.552 1.109 4.016 2.849l-1.177.409c-.344-1.355-1.354-2.114-2.839-2.114-1.664 0-3.244 1.191-3.244 3.526s1.58 3.538 3.244 3.538c1.556 0 2.531-.922 2.911-2.148l1.117.409c-.487 1.681-1.925 2.884-4.028 2.884-2.353 0-4.528-1.682-4.528-4.683M189.462 27.125c-.345 1.075-1.343 1.927-2.78 1.927-1.664 0-3.114-1.191-3.114-3.246 0-1.904 1.402-3.211 2.959-3.211 1.901 0 2.971 1.284 2.971 3.187 0 .152-.012.304-.024.374h-4.658c.024 1.086.82 1.845 1.866 1.845 1.045 0 1.509-.549 1.734-1.226zm-1.212-1.927c-.024-.875-.606-1.553-1.699-1.553-1.022 0-1.64.771-1.687 1.553zM192.267 28.853h-1.212V22.77h1.188v.875c.451-.758 1.188-1.05 1.901-1.05 1.485 0 2.21 1.05 2.21 2.405v3.853h-1.212v-3.655c0-.852-.356-1.53-1.438-1.53-.95 0-1.437.748-1.437 1.67zM199.908 22.781h1.343v1.075h-1.343v3.164c0 .56.226.83.867.83.155 0 .369-.024.476-.048v1.016a2.8 2.8 0 0 1-.82.117c-1.058 0-1.723-.63-1.723-1.728v-3.34h-1.188v-1.074h.332c.666 0 .951-.409.951-.934v-.98h1.105v1.926zM208.177 27.125c-.345 1.075-1.343 1.927-2.781 1.927-1.663 0-3.113-1.191-3.113-3.246 0-1.904 1.402-3.211 2.959-3.211 1.901 0 2.97 1.284 2.97 3.187 0 .152-.011.304-.023.374h-4.658c.024 1.086.82 1.845 1.865 1.845 1.046 0 1.509-.549 1.735-1.226zm-1.224-1.927c-.024-.875-.606-1.553-1.699-1.553-1.022 0-1.64.771-1.688 1.553zM213.204 23.984a4 4 0 0 0-.523-.035c-1.022 0-1.699.525-1.699 1.868v3.048h-1.212v-6.084h1.188v1.063c.451-.934 1.224-1.168 1.853-1.168.167 0 .333.024.404.035v1.261zM219.81 27.125c-.345 1.075-1.343 1.927-2.781 1.927-1.663 0-3.113-1.191-3.113-3.246 0-1.904 1.402-3.211 2.959-3.211 1.901 0 2.97 1.284 2.97 3.187 0 .152-.012.304-.024.374h-4.657c.023 1.086.82 1.845 1.865 1.845 1.046 0 1.509-.549 1.735-1.226zm-1.224-1.927c-.024-.875-.606-1.553-1.699-1.553-1.022 0-1.64.771-1.688 1.553zM225.739 27.93c-.297.585-.951 1.087-1.913 1.087-1.818 0-2.935-1.413-2.935-3.223s1.188-3.188 2.935-3.188c1.093 0 1.687.526 1.889 1.028v-3.935h1.2v8.033c0 .584.047 1.028.059 1.121h-1.176a5.4 5.4 0 0 1-.059-.817zm-1.807.048c1.106 0 1.795-.946 1.795-2.196s-.666-2.113-1.771-2.113-1.83.887-1.83 2.137.654 2.172 1.818 2.172zM132.855 7.648c-.059-.42-.415-1.12-1.52-1.12-.761 0-1.248.466-1.248.957 0 .432.273.747.903.864l1.224.222c1.735.315 2.638 1.413 2.638 2.697 0 1.401-1.2 2.838-3.375 2.838-2.519 0-3.6-1.612-3.731-2.873l1.866-.444c.083.818.641 1.542 1.889 1.542.796 0 1.283-.374 1.283-.934 0-.456-.368-.783-.974-.9l-1.248-.221c-1.545-.292-2.483-1.308-2.483-2.628 0-1.693 1.521-2.884 3.267-2.884 2.282 0 3.137 1.343 3.327 2.394l-1.829.502zM138.618 7.625h1.248v1.681h-1.248v2.348c0 .513.286.653.713.653.202 0 .404-.035.511-.058v1.588c-.071.035-.404.175-1.022.175-1.33 0-2.138-.77-2.138-2.02V9.295h-1.129V7.613h.321c.665 0 .986-.443.986-1.027V5.78h1.746v1.833zM142.813 10.287l1.509-.222c.345-.046.463-.21.463-.432 0-.362-.32-.677-.938-.677-.678 0-1.058.456-1.093.923l-1.7-.339c.072-.9.927-2.09 2.805-2.09 2.067 0 2.828 1.132 2.828 2.429v3.07c0 .491.059.911.083.97h-1.759s-.059-.28-.059-.713c-.333.526-.951.888-1.806.888-1.402 0-2.21-.91-2.21-1.903 0-1.11.831-1.74 1.889-1.892zm1.972 1.156v-.28l-1.212.187c-.415.058-.724.257-.724.7 0 .327.213.643.76.643.582 0 1.176-.28 1.176-1.25M150.298 13.907h-1.96V7.625h1.889v.724c.345-.596 1.129-.888 1.794-.888 1.605 0 2.329 1.121 2.329 2.5v3.946h-1.96v-3.62c0-.619-.333-1.086-1.046-1.086-.642 0-1.057.467-1.057 1.098v3.608zM158.248 9.248v4.67h-1.961v-4.67h-1.021V7.625h1.021v-.549c0-1.436.892-2.429 2.448-2.429.404 0 .749.047.927.14v1.565a2.5 2.5 0 0 0-.582-.058c-.345 0-.832.152-.832.852v.479h1.39v1.623zM166.91 10.766c0 1.95-1.485 3.34-3.398 3.34s-3.399-1.39-3.399-3.34 1.497-3.328 3.399-3.328 3.398 1.378 3.398 3.328m-1.961 0c0-1.063-.689-1.553-1.437-1.553s-1.438.49-1.438 1.553.713 1.565 1.438 1.565c.724 0 1.437-.502 1.437-1.565M172.234 9.528a3 3 0 0 0-.618-.058c-.784 0-1.497.455-1.497 1.705v2.744h-1.961V7.637h1.889v.852c.333-.712 1.141-.91 1.664-.91.19 0 .38.023.511.058v1.891zM179.636 12.786c0 .572.035.98.047 1.121h-1.877a4.4 4.4 0 0 1-.048-.607c-.297.432-.938.747-1.711.747-1.806 0-3.16-1.366-3.16-3.304 0-1.939 1.283-3.27 3.101-3.27 1.093 0 1.568.409 1.723.642V4.752h1.925zm-3.351-.455c.761 0 1.438-.526 1.438-1.565 0-1.04-.677-1.553-1.438-1.553s-1.438.502-1.438 1.553.678 1.565 1.438 1.565M184.615 10.673V4.95h2.032v5.558c0 1.086.618 1.635 1.58 1.635s1.581-.549 1.581-1.635V4.951h2.032v5.722c0 2.253-1.604 3.432-3.613 3.432s-3.612-1.19-3.612-3.432M195.511 13.907h-1.96V7.625h1.889v.724c.345-.596 1.129-.888 1.794-.888 1.604 0 2.329 1.121 2.329 2.5v3.946h-1.96v-3.62c0-.619-.333-1.086-1.046-1.086-.642 0-1.058.467-1.058 1.098v3.608zM202.189 4.577c.642 0 1.153.502 1.153 1.121 0 .62-.511 1.121-1.153 1.121a1.113 1.113 0 0 1-1.128-1.12c0-.62.51-1.122 1.128-1.122m-.974 9.33V7.625h1.961v6.282zM208.747 13.907h-1.973l-2.626-6.282h2.127l1.486 3.912 1.366-3.912h2.056zM217.789 12.097c-.308 1.086-1.33 1.997-2.946 1.997-1.759 0-3.327-1.238-3.327-3.351s1.532-3.317 3.196-3.317c1.984 0 3.208 1.203 3.208 3.223a4.4 4.4 0 0 1-.035.596h-4.456c.035.712.701 1.214 1.449 1.214.713 0 1.105-.327 1.284-.817l1.639.455zm-1.77-2.078c-.024-.48-.356-1.063-1.283-1.063-.82 0-1.236.596-1.272 1.063h2.567zM223.232 9.528a3 3 0 0 0-.618-.058c-.784 0-1.497.455-1.497 1.705v2.744h-1.961V7.637h1.89v.852c.332-.712 1.14-.91 1.663-.91.19 0 .392.023.511.058v1.891zM225.608 11.84c.024.432.333.853 1.01.853.499 0 .749-.269.749-.55 0-.221-.155-.42-.63-.513l-.737-.163c-1.366-.292-1.901-1.051-1.901-1.939 0-1.156 1.034-2.09 2.46-2.09 1.854 0 2.495 1.133 2.555 1.868l-1.616.292c-.048-.42-.321-.77-.915-.77-.369 0-.689.21-.689.548 0 .269.213.42.499.468l.855.163c1.331.269 1.973 1.05 1.973 1.973 0 1.075-.832 2.126-2.543 2.126-2.008 0-2.65-1.273-2.698-1.974l1.664-.292zM231.432 4.577c.641 0 1.152.502 1.152 1.121 0 .62-.511 1.121-1.152 1.121a1.114 1.114 0 0 1-1.129-1.12c0-.62.511-1.122 1.129-1.122m-.963 9.33V7.625h1.961v6.282zM236.482 7.625h1.247v1.681h-1.247v2.348c0 .513.285.653.713.653.202 0 .404-.035.511-.058v1.588c-.072.035-.404.175-1.022.175-1.331 0-2.139-.77-2.139-2.02V9.295h-1.129V7.613h.321c.665 0 .986-.443.986-1.027V5.78h1.747v1.833zM239.747 16.324l1.45-3.258-2.685-5.441h2.186l1.557 3.363 1.414-3.363h2.067l-3.933 8.7zM133.902 41.488h-4.04l-.962 2.498h-1.355l3.624-8.967h1.45l3.624 8.967h-1.367l-.986-2.498zm-3.589-1.145h3.137l-1.58-4.017zM140.782 39.117a4 4 0 0 0-.523-.035c-1.022 0-1.699.526-1.699 1.868v3.048h-1.212v-6.084h1.188v1.063c.451-.934 1.224-1.168 1.854-1.168.166 0 .332.024.404.035v1.262zM144.013 37.915h1.343v1.074h-1.343v3.164c0 .56.226.83.868.83.154 0 .368-.024.475-.047v1.015a2.8 2.8 0 0 1-.82.117c-1.057 0-1.723-.63-1.723-1.728V39h-1.188v-1.074h.333c.665 0 .95-.409.95-.934v-.98h1.105v1.926zM147.553 34.75c.487 0 .879.374.879.864s-.38.853-.879.853a.84.84 0 0 1-.867-.853c0-.478.392-.864.867-.864m-.594 9.237v-6.084h1.2v6.084zM153.341 34.925v1.063c-.06-.023-.214-.07-.523-.07-.428 0-.974.187-.974 1.027v.97h4.087v6.083h-1.2v-5.01h-2.899v5.01h-1.248v-5.01h-1.141v-1.073h1.141v-1.028c0-1.355.915-2.09 2.032-2.09.416 0 .665.093.725.128m1.984-.198c.487 0 .879.373.879.864 0 .49-.392.852-.879.852a.85.85 0 0 1-.867-.852.86.86 0 0 1 .867-.864M158.71 40.95c0 1.39.892 2.137 1.89 2.137 1.164 0 1.58-.77 1.723-1.25l1.069.456c-.297.876-1.188 1.892-2.792 1.892-1.806 0-3.125-1.39-3.125-3.235s1.354-3.222 3.113-3.222c1.651 0 2.495 1.015 2.756 1.938l-1.093.455c-.154-.595-.606-1.284-1.663-1.284-.975 0-1.878.712-1.878 2.125zM165.401 34.75c.487 0 .879.374.879.864s-.38.853-.879.853a.843.843 0 0 1-.868-.853.86.86 0 0 1 .868-.864m-.595 9.237v-6.084h1.201v6.084zM169.559 40.519l1.675-.246c.369-.046.476-.245.476-.455 0-.596-.404-1.086-1.343-1.086-.844 0-1.331.514-1.402 1.226l-1.153-.269c.131-1.167 1.2-1.973 2.531-1.973 1.854 0 2.579 1.04 2.579 2.23v3.048c0 .525.047.852.071 1.004h-1.188c-.024-.152-.06-.373-.06-.817-.273.432-.891 1.016-1.996 1.016-1.259 0-2.067-.864-2.067-1.822 0-1.086.808-1.693 1.877-1.845zm2.151.864v-.28l-1.89.28c-.51.07-.903.362-.903.91 0 .456.381.888.999.888.986 0 1.782-.467 1.782-1.798zM174.801 43.987v-9.155h1.212v9.154zM181.406 43.986V35.02h1.284v8.967zM186.101 43.986h-1.212v-6.083h1.188v.876c.451-.76 1.188-1.051 1.901-1.051 1.485 0 2.21 1.05 2.21 2.405v3.853h-1.212v-3.654c0-.853-.356-1.53-1.438-1.53-.95 0-1.437.747-1.437 1.67zM193.74 37.915h1.343v1.074h-1.343v3.164c0 .56.226.83.867.83.155 0 .369-.024.476-.047v1.015a2.8 2.8 0 0 1-.82.117c-1.058 0-1.723-.63-1.723-1.728V39h-1.188v-1.074h.332c.666 0 .951-.409.951-.934v-.98h1.105v1.926zM202.011 42.258c-.345 1.075-1.343 1.927-2.781 1.927-1.663 0-3.113-1.191-3.113-3.246 0-1.904 1.402-3.211 2.959-3.211 1.901 0 2.97 1.284 2.97 3.187 0 .152-.011.304-.023.374h-4.658c.024 1.086.82 1.845 1.865 1.845 1.046 0 1.509-.549 1.735-1.226zm-1.212-1.938c-.024-.876-.606-1.53-1.699-1.53-1.022 0-1.64.747-1.688 1.53zM203.602 43.987v-9.155h1.212v9.154zM206.871 43.987v-9.155h1.212v9.154zM210.733 34.75c.487 0 .879.374.879.864s-.38.853-.879.853a.843.843 0 0 1-.868-.853c0-.478.392-.864.868-.864m-.594 9.237v-6.084h1.2v6.084zM214.118 44.057c.095.852.748 1.494 1.687 1.494 1.295 0 1.889-.654 1.889-1.973v-.876c-.297.56-.962 1.004-1.889 1.004-1.652 0-2.84-1.226-2.84-2.942s1.141-2.955 2.84-2.955c.95 0 1.592.35 1.901.958v-.853h1.2v5.629c0 1.541-.772 3.047-3.101 3.047-1.545 0-2.697-.957-2.852-2.265l1.176-.269zm3.624-3.305c0-1.18-.725-1.95-1.759-1.95s-1.794.77-1.794 1.95.689 1.95 1.794 1.95 1.759-.77 1.759-1.95M226.226 42.258c-.345 1.075-1.343 1.927-2.781 1.927-1.663 0-3.113-1.191-3.113-3.246 0-1.904 1.402-3.211 2.959-3.211 1.901 0 2.97 1.284 2.97 3.187 0 .152-.012.304-.023.374h-4.658c.023 1.086.82 1.845 1.865 1.845 1.046 0 1.509-.549 1.735-1.226zm-1.224-1.938c-.024-.876-.606-1.553-1.699-1.553-1.022 0-1.64.77-1.688 1.553zM229.019 43.986h-1.212v-6.083h1.188v.876c.451-.76 1.188-1.051 1.901-1.051 1.485 0 2.21 1.05 2.21 2.405v3.853h-1.212v-3.654c0-.853-.356-1.53-1.438-1.53-.95 0-1.437.747-1.437 1.67zM235.755 40.95c0 1.39.891 2.137 1.89 2.137 1.152 0 1.58-.77 1.722-1.25l1.07.456c-.297.876-1.188 1.892-2.792 1.892-1.807 0-3.125-1.39-3.125-3.235s1.354-3.222 3.113-3.222c1.651 0 2.495 1.015 2.756 1.938l-1.093.455c-.154-.595-.606-1.284-1.663-1.284-.975 0-1.878.712-1.878 2.125zM247.187 42.258c-.345 1.075-1.343 1.927-2.781 1.927-1.663 0-3.113-1.191-3.113-3.246 0-1.904 1.402-3.211 2.959-3.211 1.901 0 2.97 1.284 2.97 3.187 0 .152-.012.304-.024.374h-4.657c.023 1.086.819 1.845 1.865 1.845s1.509-.549 1.735-1.226zm-1.224-1.938c-.024-.876-.606-1.553-1.699-1.553-1.022 0-1.64.77-1.688 1.553z"/></g><defs><clipPath id="HaiLogo_svg__a"><path fill="#fff" d="M0 0h247.222v50H0z"/></clipPath></defs></svg>
